<?xml version="1.0" standalone="yes"?>
<svg xmlns="http://www.w3.org/2000/svg" xmlns:xlink="http://www.w3.org/1999/xlink" xmlns:svg="http://www.w3.org/2000/svg" xmlns:dc="http://purl.org/dc/elements/1.1/" xmlns:cc="http://web.resource.org/cc/" xmlns:rdf="http://www.w3.org/1999/02/22-rdf-syntax-ns#" width="320" height="180">
<path style="fill:#a7a191; stroke:none;" d="M0 0L0 42L8 42C10.4464 48.8068 18.1062 48.9209 23.9606 50.4182C29.74 51.8963 34.6326 55.2126 40.9105 55.5463C46.889 55.8641 53.7349 54 60 54L60 58L78 60L82 51L83 51L79 64C84.3556 60.7592 85.3408 52.5723 87.4244 47C93.2761 31.3499 99.8298 15.8893 105 0L0 0z"/>
<path style="fill:#a18d75; stroke:none;" d="M105 0L87.8079 45L79 64L83 51L82 51L78 60L60 58L60 54C46.5535 54 37.7233 53.7778 24.9105 50.4182C18.415 48.7151 11.8669 48.5281 8 42L0 42L1 64C19.2862 59.164 41.2426 71.3427 60 70.0895C66.0446 69.6857 77.2943 72.7309 80 66L81 66L80 72L81 72L83 71L84 71C88.5163 62.127 97.4823 63.2373 106 62.804C108.613 62.6711 113.083 63.55 114.972 61.2539C117.057 58.7205 116 53.0736 116 50C110.524 51.1297 105.629 53.0209 101 49L115 49L114 28L113 28L113 32L112 32C110.519 29.2498 108.747 28.4476 108 32L107 32L107 20L106 20L106 28L105 28L105 26L104 26L104 29L103 29L103 26L102 26L98 32L105 0z"/>
<path style="fill:#b5a78d; stroke:none;" d="M98 32L102 26L103 26L103 29L104 29L104 26L105 26L105 28L106 28L106 20L107 20L107 32L108 32L108 29L112 32L113 32L111 0C101.856 0.728683 96.2929 24.1169 98 32z"/>
<path style="fill:#151b27; stroke:none;" d="M111 0L117.91 75L121 124L114 130C113.599 125.449 112.922 121.852 108 121L107 132L86 131.853L71 129L71 132L58 134L54 133L54 129C47.4149 132.635 45.1521 139.86 45 147L41 147L43 152L106 149.285L126.411 146.976L131 139L131 143C135.858 142.032 138.395 141.257 139 136L142 136C142.012 139.504 141.509 144.618 145.344 146.397C150.371 148.728 157.75 146.269 163 146.039C178.285 145.37 193.715 144 209 144C206.661 152.062 198.498 148.77 193 153L187 151L188 155L194 156L195 156L199 152L210 153C210 144.581 210.121 135.335 214.839 128C217.98 123.116 223.128 119.895 226 115L196 123L193 105L197 106C195.59 101.772 194.5 97.4568 190 96C188.648 101.015 186.596 104.513 187.104 110C187.507 114.357 190.881 120.431 188.651 124.697C184.445 132.744 172.199 127.219 170 121L165 122L165 123L170 127L162 128L162 120L123 120L113 0L111 0z"/>
<path style="fill:#b5a78d; stroke:none;" d="M113 0L119 61L137 64C143.753 43.5993 161.585 66.454 173 68C166.319 49.3788 153.027 34.7732 140.881 19C136.7 13.5704 132.054 4.33119 125.91 1.02779C122.309 -0.908478 116.961 0 113 0z"/>
<path style="fill:#56524c; stroke:none;" d="M126 0L146 25C142.586 16.9246 133.897 4.00128 126 0z"/>
<path style="fill:#b9b19d; stroke:none;" d="M128 0C136.019 13.9401 149.217 33.2172 162 43L158 35L208 38L208 34L215 37C221.739 33.2581 233.309 36 241 36C258.191 36 275.939 34.0498 293 32.1289C299.758 31.368 314.005 34.4819 318.972 28.2585C322.241 24.1626 320 12.0942 320 7L292 10L293 6L263 7L265 2C260.165 2.61514 256.158 2.69324 255 8L236 9L229 7L229 4L216 4L222 1L193 0L128 0z"/>
<path style="fill:#95918d; stroke:none;" d="M216 4L229 4L229 7L236 9L255 8C256.793 3.1227 260.278 2.89397 265 2L263 7L293 6L292 10L305 11L305 10L296 9C295.365 0.855133 286.212 4 280 4L280 1L253.147 0.317902L245 7L245 3L239 3L239 0C232.316 0 220.321 -2.19299 216 4z"/>
<path style="fill:#737779; stroke:none;" d="M239 0L239 3L245 3L245 7C249.342 6.27586 249.906 3.99748 251 0L239 0z"/>
<path style="fill:#5f6972; stroke:none;" d="M273 0L273 1L280 1L280 4C285.967 4 294.789 1.47005 296 9L308 10L308 9L302 9L304 0L273 0z"/>
<path style="fill:#36414e; stroke:none;" d="M304 0L302 9L320 7L320 0L304 0z"/>
<path style="fill:#474547; stroke:none;" d="M113 3L113 8L114 8L113 3z"/>
<path style="fill:#857f79; stroke:none;" d="M111 5L111 10L112 10L111 5z"/>
<path style="fill:#56524c; stroke:none;" d="M114 10L114 16L115 16L114 10z"/>
<path style="fill:#7e756b; stroke:none;" d="M112 14L112 18L113 18L112 14z"/>
<path style="fill:#6f6560; stroke:none;" d="M115 19L115 24L116 24L115 19z"/>
<path style="fill:#7e756b; stroke:none;" d="M113 24L113 28L114 28L113 24z"/>
<path style="fill:#3a2a1e; stroke:none;" d="M146 25L150 30L146 25z"/>
<path style="fill:#57555d; stroke:none;" d="M116 29L116 34L117 34L116 29z"/>
<path style="fill:#b9a585; stroke:none;" d="M215 37L208 34L208 38L158 35C160.982 42.9374 165.823 50.6771 171.665 56.8519C174.944 60.3175 179.366 60.9212 181 56L199 60L198 57L203 57L202 53L216 59C219.913 51.7915 227.768 50.7066 235 54L248 47.5617L260 49.8117L304 46L304 42L320 42L320 29C296.997 33.3614 271.42 35.8484 248 35.9992C239.463 36.0542 221.85 32.2028 215 37z"/>
<path style="fill:#3a2a1e; stroke:none;" d="M150 30L158 41L150 30z"/>
<path style="fill:#7e756b; stroke:none;" d="M117 38L117 45L118 45L117 38z"/>
<path style="fill:#0e0e15; stroke:none;" d="M158 40C162.165 52.5624 174.316 63.8837 182.54 74C189.504 82.5667 195.994 93.522 205 100L185.424 74L158 40z"/>
<path style="fill:#453d35; stroke:none;" d="M115 41L115 49L116 49L115 41z"/>
<path style="fill:#b19975; stroke:none;" d="M304 42L304 46C288.654 46 274.961 48.2784 260 49.6597C249.431 50.6357 244.497 45.3307 235 54C228.871 49.5308 218.611 51.7777 216 59L202 53L203 57L198 57L196 60L196 61C204.328 62.825 208.127 67.8077 217 65L215 61L219 61C220.118 53.6697 224.716 53.9875 231 54C234.354 65.5956 242.545 57.211 249.015 60.2762C258.058 64.5608 263.254 62.2995 273 61.9699C280.491 61.7166 287.029 64.9229 294.004 64.912C297.582 64.9064 300.297 62.4878 303.715 62.2693C309.747 61.8836 314.301 66.3565 320 67L320 42L304 42z"/>
<path style="fill:#917f6b; stroke:none;" d="M101 49C104.387 53.4486 110.428 51.7122 115 50L101 49z"/>
<path style="fill:#57555d; stroke:none;" d="M219 59C223.917 61.6454 232.523 66.6055 236 60L231 54C225.551 53.9591 220.809 52.818 219 59z"/>
<path style="fill:#47372d; stroke:none;" d="M118 54L118 62L119 62L118 54z"/>
<path style="fill:#4a4e58; stroke:none;" d="M137 64L119 61L123 120L162 120L162 128L170 127L165 123L165 122L172 120L175 125L176 121C175.98 124.531 180.034 123.616 183 124L176 127L176 128C193.244 127.989 187.536 121.047 187.048 108C186.88 103.521 189.344 100.244 190 96L195 103L206 101C217.992 104.545 232.709 100.578 245 100.039C269.967 98.9461 295.067 99.0165 320 99C320 94.0408 322.132 82.6216 318.972 78.6026C315.772 74.5331 303.609 76 299 76L299 77L306 79L306 80L282.91 84.5671L259 83L259 82L262 81L262 80L235 79L235 80L237 81L202 89L202 91L199 91L205 100L172 61L173 68C162.466 65.7897 142.285 43.043 137 64M116 56C115.188 66.5114 100.449 61.8145 93 63L93 64L101 69L95 69L95 72L78 77L79 72L66 73L67 70L0 63C0 73.6267 2.2771 78.9586 14 79L12 74C14.7309 74.7775 30.7932 81.7563 30.7932 83.8302C30.7932 88.5487 18.9108 87 16 87C17.6581 91.7154 22.7017 90.9738 27 92L27 93C23.3839 92.4056 20.3762 91.8926 18 95C34.2514 94.4708 61.1565 115.527 67 92L71 93L67 106L72 102L71 107L118 94C118 82.8416 120.329 66.3161 116 56z"/>
<path style="fill:#555b61; stroke:none;" d="M181 56L175 60C180.18 68.8941 191.287 89.1831 202 91L202 89C210.312 91.6247 212.859 86.3439 220.167 84.6667C222.621 84.1033 225.308 85.7027 227.833 84.8333C230.075 84.0617 237.797 81.2161 235 80L235 79L262 80L262 81L259 82L259 83L282.91 84.7809L306 80L306 79L299 77L299 76L320 78L320 67L306.015 64.0193L295.985 66.037L272 61.6443L257.961 63.7377L244 59C244.287 63.5602 242.791 65.5895 239 68L251 74L222 66.4591L208.428 65.8526L181 56z"/>
<path style="fill:#877b6f; stroke:none;" d="M219 59L215 61L215 65L215 66L251 74L239 68L245 61L237 60C230.727 64.9288 225.64 61.4905 219 59z"/>
<path style="fill:#7e756b; stroke:none;" d="M292 65L292 66L313 64C304.684 60.4669 300.116 64.5566 292 65z"/>
<path style="fill:#6f6560; stroke:none;" d="M84 71L83 71L82 69L81 72L80 72L81 66L80 66L66 73L79 72L78 77L95 72L95 69L101 69C97.7387 60.8594 86.3702 63.5507 84 71z"/>
<path style="fill:#36414e; stroke:none;" d="M12 74L14 79L0 75L0 131C5.73464 130.878 12.4521 130.944 17.9853 130.317C25.2821 129.49 32.9492 124.657 40 130L41 130C45.0055 125.084 53.8279 127.338 59 129L61 116C65.2212 118.32 64.7884 122.341 67.6528 125.852C71.1045 130.083 80.808 129.966 85 127L88 128L89 131C90.7484 130.678 96.5789 129.556 93 128L93 127L105 129L106 129L106 132L107 132L108 121C112.427 122.394 113.345 125.652 114 130L121 124L119 91L118 91L118 94L74 106L74 107L88 108L88 109L68 111L52 110C57.2157 106.248 62.8124 107 69 107L69 106L71 93L67 92L60.8526 102.758L49 101.612L18 95L27 93L27 92L16 87C19.2724 87 29.9688 88.6872 31.2485 84.5856C32.1104 81.8229 15.1732 74.5028 12 74z"/>
<path style="fill:#6f6560; stroke:none;" d="M54 84C56.2822 88.3576 61.3738 89.4357 66 90C64.2176 84.6409 59.0825 84.1088 54 84z"/>
<path style="fill:#36414e; stroke:none;" d="M206 101L196 103L197 106L193 105L196 123L226 115L219 123L235 118C237.596 121.599 239.757 120.284 242 117L251 120C250.49 123.012 250.793 124.361 254 124L252 122C259.076 117.226 274.812 119.051 283 121C286.279 117.567 288.673 117.395 293 119L292 116L300 119C302.665 115.616 305.984 118.106 309.715 117.321C320.355 115.083 320 107.945 320 99L244 100.039L206 101z"/>
<path style="fill:#151b27; stroke:none;" d="M70 102C67.4682 110.34 57.3198 104.568 52 110L68 111L88 109L88 108L71 107L72 102L70 102z"/>
<path style="fill:#5f6972; stroke:none;" d="M300 119L292 116L293 119C288.997 116.826 285.464 116.735 283 121C278.212 119.585 250.977 116.547 254 124L251 125L251 120L242 117C239.273 119.757 238.061 120.666 235 118C219.59 123.282 213.255 125.726 210 143L231 141L231 136L229 136L229 132L236 136L241 136L237 135L234 140C237.43 139.366 247.412 137.012 248 141L258 138L257 141L261 140L260 143L264 143L262 139C267.789 141.12 282.672 142.145 287 137L292 137L291 140C294.594 140.679 299.032 142.52 300 138C302.857 139.457 304.817 139.572 308.004 139.411C311.112 139.254 315.79 139.932 318.397 137.825C322.662 134.377 320 118.188 320 113L300 119z"/>
<path style="fill:#0e0e15; stroke:none;" d="M61 116L57 134L58 134L67 133L67 129L71 130L61 116z"/>
<path style="fill:#737779; stroke:none;" d="M170 120L174 128L172 120L170 120z"/>
<path style="fill:#555b61; stroke:none;" d="M174 121L175 125L173 127L183 124C179.495 122.832 175.093 124.628 176 121L174 121z"/>
<path style="fill:#323740; stroke:none;" d="M191 121L191 124L194 124L194 121L191 121z"/>
<path style="fill:#4a4e58; stroke:none;" d="M152 124L152 129L160 128L160 124L152 124M132 125L132 130L140 130L140 125L132 125M142 125L142 129L150 129L150 125L142 125z"/>
<path style="fill:#51575f; stroke:none;" d="M41 130L40 130C33.2822 122.311 9.05006 130.586 0 131L0 158L5 158L4 156L37 155.978L53 163L53 168L48 168C48 175.29 32.3228 169.753 31 173C22.8317 168.901 9.09135 172.312 0 174L0 180L45 179L45 178L36 178L44 174L56 173L58 175L58 176L48 177L48 178L65 179L66 179L67 179C76.4133 171.593 86.7638 178.453 96 180L94 177L102 174L128 177C133.78 171.098 149.859 172.679 158 171L158 170L147 167L164 166L164 165L161 163L169 163L169 160L165 160L165 159L184 156L159 156L161 160C152.834 160 144.032 158.061 136 159.083C129.702 159.885 124.39 162.434 118 161.722C114.128 161.291 104.786 163.364 104 158L67 160L67 161L69 162L40.9606 154.478L5 155L5 154L43 152L41 147L45 147C45.3369 139.627 48.2945 133.701 54 129L54 133L59 131L59 130L59 129L57 127C52.0219 127.063 44.6302 125.839 41 130z"/>
<path style="fill:#474547; stroke:none;" d="M123 126L123 130L129 130L129 126L123 126z"/>
<path style="fill:#575f6b; stroke:none;" d="M84 127L80 128C82.179 133.535 104.743 134.867 106 129L105 129L104 131C100.845 127.253 97.7077 127.017 93 127L93 128L95 129L89 131L88 128L84 127z"/>
<path style="fill:#51575f; stroke:none;" d="M67 129L71 132L67 129z"/>
<path style="fill:#737779; stroke:none;" d="M229 132L229 136L231 136L231 141L210 143C211.846 149.833 216.367 151.471 223 152L223 153L220 154L220 155L239 157L239 158L225 160L226 162L224 162L225 167L219 168L219 169L227 169L227 170L220 171L220 172L232 172L232 173L218 175L218 178L226 177L226 178L221 179L221 180L320 179L320 138L300 138C297.732 141.458 294.762 140.462 291 140L292 137L287 137C280.978 141.738 269.075 140.842 262 139L264 143L260 143L261 140L257 141L258 138L248 141C247.411 136.34 237.663 139.085 234 140L237 135L241 136C239.231 133.966 237.769 133.966 236 136L229 132z"/>
<path style="fill:#0e0e15; stroke:none;" d="M139 136C137.992 140.834 135.517 141.767 131 143L131 139C127.771 141.112 128.666 145.926 124.917 147.528C119.18 149.979 112.02 148.544 106 149.134C92.2114 150.485 78.8919 151 65 151C59.2282 151 42.9816 148.149 41 155C61.3934 159.607 80.1228 156.419 101 155.09C108.984 154.582 117.027 156.921 125 156.921C135.028 156.921 144.931 154.596 155 154.745C166.09 154.909 182.92 147.667 193 153C198.813 149.85 207.741 151.892 209 144C193.652 144 178.358 145.638 163 146.015C157.846 146.141 151.152 148.521 146.189 146.397C142.041 144.622 142.043 139.823 142 136L139 136z"/>
<path style="fill:#262b33; stroke:none;" d="M210 145L210 153L199 152L195 156L194 156L188 155C183.179 147.564 162.853 154.687 155 154.546C144.935 154.364 135.036 156.821 125 156.821C111.209 156.821 97.887 155.431 84 156.039C71.7448 156.576 60.2242 159.91 48 157C51.0178 160.731 64.3771 162.962 69 162L67 161L67 160L161 160L159 156C166.618 156.063 185.046 152.16 190 159L212 156L210 145z"/>
<path style="fill:#656973; stroke:none;" d="M211 148C211.74 152.036 212.798 154.277 217 155L217 156L215 156L215 157L219 160L201 161L201 162L204 162L204 163L199 164L202 165L202 166L197 169L201 172L190 169L186 170L186 169L189 164C185.47 161.228 187.412 160.253 189 157L165 159L165 160L169 160L169 163L161 163L164 165L164 166L147 167L158 170L158 171C151.223 171.913 131.633 171.396 128 177L102 174L94 177C100.176 183.492 118.514 180 127 180C158.356 180 189.962 179.894 221 180L221 179L218 175L232 173L232 172L220 172L220 171L227 170L227 169L219 169L219 168L225 167L224 162L225 160L239 158L239 157L220 155L220 154L223 153L223 152L213 148L211 148z"/>
<path style="fill:#1d232f; stroke:none;" d="M5 154L5 155L41 154L41 152L5 154z"/>
<path style="fill:#51575f; stroke:none;" d="M212 154L190 159C189.386 156.149 188.697 156.146 186 157L186 158L189 157L186 159L189 164L186 169L186 170L190 169L192 171L201 172L197 169L202 166L202 165L199 164L204 163L204 162L201 162L201 161L219 160L215 157L215 156L217 156L212 154z"/>
<path style="fill:#676b6f; stroke:none;" d="M4 156L5 158L0 158L0 174C9.91369 172.747 21.698 169.73 31 173C34.8075 170.786 47.0447 174.943 48 168L53 168L53 163L37 155.705L4 156z"/>
<path style="fill:#36414e; stroke:none;" d="M103 159L103 160L132 161C127.692 158.219 108.093 157.495 103 159z"/>
<path style="fill:#5f6972; stroke:none;" d="M44 174L36 178L45 178L45 179L33 179L33 180L92 180C89.4352 173.62 71.1363 174.083 67 179L66 179L65 179L48 178L48 177L58 176L58 175L56 173L44 174z"/>
<path style="fill:#51575f; stroke:none;" d="M220 178L220 179L226 178L220 178z"/>
<path style="fill:#4a4e58; stroke:none;" d="M208 179L208 180L213 180L213 178L208 179z"/>
<path style="fill:#1d232f; stroke:none;" d="M255 179L255 180L264 180L255 179z"/>
<path style="fill:#323740; stroke:none;" d="M186 179L186 180L190 180L186 179M309 179L309 180L320 180L309 179z"/>
</svg>
